<svg width="560" height="560" viewBox="0 0 560 560" fill="none" xmlns="http://www.w3.org/2000/svg">
<path d="M406 364H378V196H406V364ZM364 294H196V266H364V294ZM252 182H70V266H140V294H42V154H252V182ZM406 518H266V308H294V490H378V420H406V518ZM182 364H154V196H182V364ZM252 406H70V490H154V420H182V518H42V378H252V406ZM518 182H308V154H490V70H406V140H378V42H518V182ZM294 252H266V70H182V140H154V42H294V252ZM518 406H308V378H490V294H420V266H518V406Z" stroke="#FF715B" stroke-width="42"/>
<path d="M406 364H378V196H406V364ZM364 294H196V266H364V294ZM252 182H70V266H140V294H42V154H252V182ZM406 518H266V308H294V490H378V420H406V518ZM182 364H154V196H182V364ZM252 406H70V490H154V420H182V518H42V378H252V406ZM518 182H308V154H490V70H406V140H378V42H518V182ZM294 252H266V70H182V140H154V42H294V252ZM518 406H308V378H490V294H420V266H518V406Z" stroke="white" stroke-width="28"/>
<path d="M406 364H378V196H406V364ZM364 294H196V266H364V294ZM252 182H70V266H140V294H42V154H252V182ZM406 518H266V308H294V490H378V420H406V518ZM182 364H154V196H182V364ZM252 406H70V490H154V420H182V518H42V378H252V406ZM518 182H308V154H490V70H406V140H378V42H518V182ZM294 252H266V70H182V140H154V42H294V252ZM518 406H308V378H490V294H420V266H518V406Z" fill="#FF715B"/>
<path d="M423.5 311.5V248.5M136.5 423.5H199.5H136.5ZM136.5 360.5H199.5H136.5ZM136.5 199.5H199.5H136.5ZM136.5 136.5H199.5H136.5ZM248.5 311.5H311.5H248.5ZM248.5 248.5H311.5H248.5ZM360.5 423.5H423.5H360.5ZM360.5 360.5H423.5H360.5ZM360.5 199.5H423.5H360.5ZM360.5 136.5H423.5H360.5ZM136.5 311.5V248.5V311.5ZM199.5 311.5V248.5V311.5ZM248.5 423.5V360.5V423.5ZM311.5 423.5V360.5V423.5ZM248.5 199.5V136.5V199.5ZM311.5 199.5V136.5V199.5ZM360.5 311.5V248.5V311.5Z" stroke="#FF715B" stroke-width="7"/>
</svg>
